<svg width="267" height="158" viewBox="0 0 267 158" fill="none" xmlns="http://www.w3.org/2000/svg">
<path d="M89.2981 116.231C90.5141 116.231 91.5648 116.46 92.4501 116.919C93.3461 117.367 94.0288 118.012 94.4981 118.855C94.9781 119.697 95.2181 120.689 95.2181 121.831C95.2181 122.972 94.9781 123.964 94.4981 124.807C94.0288 125.639 93.3461 126.279 92.4501 126.727C91.5648 127.164 90.5141 127.383 89.2981 127.383H85.8261V116.231H89.2981ZM89.2981 126.183C90.7381 126.183 91.8368 125.804 92.5941 125.047C93.3515 124.279 93.7301 123.207 93.7301 121.831C93.7301 120.444 93.3461 119.361 92.5781 118.583C91.8208 117.804 90.7275 117.415 89.2981 117.415H87.2821V126.183H89.2981ZM98.5946 120.039C98.8506 119.537 99.2133 119.148 99.6826 118.871C100.163 118.593 100.744 118.455 101.427 118.455V119.959H101.043C99.4106 119.959 98.5946 120.844 98.5946 122.615V127.383H97.1386V118.615H98.5946V120.039ZM102.563 122.967C102.563 122.071 102.745 121.287 103.107 120.615C103.47 119.932 103.966 119.404 104.595 119.031C105.235 118.657 105.945 118.471 106.723 118.471C107.491 118.471 108.158 118.636 108.723 118.967C109.289 119.297 109.71 119.713 109.987 120.215V118.615H111.459V127.383H109.987V125.751C109.699 126.263 109.267 126.689 108.691 127.031C108.126 127.361 107.465 127.527 106.707 127.527C105.929 127.527 105.225 127.335 104.595 126.951C103.966 126.567 103.47 126.028 103.107 125.335C102.745 124.641 102.563 123.852 102.563 122.967ZM109.987 122.983C109.987 122.321 109.854 121.745 109.587 121.255C109.321 120.764 108.958 120.391 108.499 120.135C108.051 119.868 107.555 119.735 107.011 119.735C106.467 119.735 105.971 119.863 105.523 120.119C105.075 120.375 104.718 120.748 104.451 121.239C104.185 121.729 104.051 122.305 104.051 122.967C104.051 123.639 104.185 124.225 104.451 124.727C104.718 125.217 105.075 125.596 105.523 125.863C105.971 126.119 106.467 126.247 107.011 126.247C107.555 126.247 108.051 126.119 108.499 125.863C108.958 125.596 109.321 125.217 109.587 124.727C109.854 124.225 109.987 123.644 109.987 122.983ZM117.536 118.471C118.293 118.471 118.955 118.636 119.52 118.967C120.096 119.297 120.523 119.713 120.8 120.215V118.615H122.272V127.575C122.272 128.375 122.101 129.084 121.76 129.703C121.419 130.332 120.928 130.823 120.288 131.175C119.659 131.527 118.923 131.703 118.08 131.703C116.928 131.703 115.968 131.431 115.2 130.887C114.432 130.343 113.979 129.601 113.84 128.663H115.28C115.44 129.196 115.771 129.623 116.272 129.943C116.773 130.273 117.376 130.439 118.08 130.439C118.88 130.439 119.531 130.188 120.032 129.687C120.544 129.185 120.8 128.481 120.8 127.575V125.735C120.512 126.247 120.085 126.673 119.52 127.015C118.955 127.356 118.293 127.527 117.536 127.527C116.757 127.527 116.048 127.335 115.408 126.951C114.779 126.567 114.283 126.028 113.92 125.335C113.557 124.641 113.376 123.852 113.376 122.967C113.376 122.071 113.557 121.287 113.92 120.615C114.283 119.932 114.779 119.404 115.408 119.031C116.048 118.657 116.757 118.471 117.536 118.471ZM120.8 122.983C120.8 122.321 120.667 121.745 120.4 121.255C120.133 120.764 119.771 120.391 119.312 120.135C118.864 119.868 118.368 119.735 117.824 119.735C117.28 119.735 116.784 119.863 116.336 120.119C115.888 120.375 115.531 120.748 115.264 121.239C114.997 121.729 114.864 122.305 114.864 122.967C114.864 123.639 114.997 124.225 115.264 124.727C115.531 125.217 115.888 125.596 116.336 125.863C116.784 126.119 117.28 126.247 117.824 126.247C118.368 126.247 118.864 126.119 119.312 125.863C119.771 125.596 120.133 125.217 120.4 124.727C120.667 124.225 120.8 123.644 120.8 122.983ZM137.558 127.383L136.102 125.911C135.558 126.476 134.977 126.897 134.358 127.175C133.739 127.441 133.041 127.575 132.262 127.575C131.494 127.575 130.811 127.436 130.214 127.159C129.627 126.881 129.169 126.487 128.838 125.975C128.518 125.463 128.358 124.865 128.358 124.183C128.358 123.404 128.577 122.721 129.014 122.135C129.462 121.537 130.118 121.068 130.982 120.727C130.641 120.321 130.395 119.948 130.246 119.607C130.097 119.265 130.022 118.892 130.022 118.487C130.022 118.017 130.139 117.596 130.374 117.223C130.619 116.839 130.966 116.54 131.414 116.327C131.862 116.113 132.379 116.007 132.966 116.007C133.542 116.007 134.043 116.119 134.47 116.343C134.897 116.567 135.217 116.881 135.43 117.287C135.643 117.681 135.739 118.124 135.718 118.615H134.262C134.273 118.177 134.15 117.836 133.894 117.591C133.638 117.335 133.307 117.207 132.902 117.207C132.475 117.207 132.129 117.329 131.862 117.575C131.606 117.809 131.478 118.113 131.478 118.487C131.478 118.807 131.563 119.116 131.734 119.415C131.915 119.713 132.214 120.081 132.63 120.519L135.958 123.863L136.246 123.415L137.334 121.591H138.902L137.59 123.863C137.409 124.183 137.195 124.519 136.95 124.871L139.462 127.383H137.558ZM132.262 126.327C132.838 126.327 133.355 126.215 133.814 125.991C134.283 125.767 134.726 125.42 135.142 124.951L131.862 121.655C130.497 122.177 129.814 123.004 129.814 124.135C129.814 124.764 130.038 125.287 130.486 125.703C130.945 126.119 131.537 126.327 132.262 126.327ZM148.564 116.231C149.78 116.231 150.83 116.46 151.716 116.919C152.612 117.367 153.294 118.012 153.764 118.855C154.244 119.697 154.484 120.689 154.484 121.831C154.484 122.972 154.244 123.964 153.764 124.807C153.294 125.639 152.612 126.279 151.716 126.727C150.83 127.164 149.78 127.383 148.564 127.383H145.092V116.231H148.564ZM148.564 126.183C150.004 126.183 151.102 125.804 151.86 125.047C152.617 124.279 152.996 123.207 152.996 121.831C152.996 120.444 152.612 119.361 151.844 118.583C151.086 117.804 149.993 117.415 148.564 117.415H146.548V126.183H148.564ZM157.86 120.039C158.116 119.537 158.479 119.148 158.948 118.871C159.428 118.593 160.01 118.455 160.692 118.455V119.959H160.308C158.676 119.959 157.86 120.844 157.86 122.615V127.383H156.404V118.615H157.86V120.039ZM166.197 127.527C165.376 127.527 164.629 127.34 163.957 126.967C163.296 126.593 162.773 126.065 162.389 125.383C162.016 124.689 161.829 123.889 161.829 122.983C161.829 122.087 162.021 121.297 162.405 120.615C162.8 119.921 163.333 119.393 164.005 119.031C164.677 118.657 165.429 118.471 166.261 118.471C167.093 118.471 167.845 118.657 168.517 119.031C169.189 119.393 169.717 119.916 170.101 120.599C170.496 121.281 170.693 122.076 170.693 122.983C170.693 123.889 170.49 124.689 170.085 125.383C169.69 126.065 169.152 126.593 168.469 126.967C167.786 127.34 167.029 127.527 166.197 127.527ZM166.197 126.247C166.72 126.247 167.21 126.124 167.669 125.879C168.128 125.633 168.496 125.265 168.773 124.775C169.061 124.284 169.205 123.687 169.205 122.983C169.205 122.279 169.066 121.681 168.789 121.191C168.512 120.7 168.149 120.337 167.701 120.103C167.253 119.857 166.768 119.735 166.245 119.735C165.712 119.735 165.221 119.857 164.773 120.103C164.336 120.337 163.984 120.7 163.717 121.191C163.45 121.681 163.317 122.279 163.317 122.983C163.317 123.697 163.445 124.3 163.701 124.791C163.968 125.281 164.32 125.649 164.757 125.895C165.194 126.129 165.674 126.247 166.197 126.247ZM174.063 120.231C174.351 119.729 174.778 119.313 175.343 118.983C175.919 118.641 176.586 118.471 177.343 118.471C178.122 118.471 178.826 118.657 179.455 119.031C180.095 119.404 180.597 119.932 180.959 120.615C181.322 121.287 181.503 122.071 181.503 122.967C181.503 123.852 181.322 124.641 180.959 125.335C180.597 126.028 180.095 126.567 179.455 126.951C178.826 127.335 178.122 127.527 177.343 127.527C176.597 127.527 175.935 127.361 175.359 127.031C174.794 126.689 174.362 126.268 174.063 125.767V131.543H172.607V118.615H174.063V120.231ZM180.015 122.967C180.015 122.305 179.882 121.729 179.615 121.239C179.349 120.748 178.986 120.375 178.527 120.119C178.079 119.863 177.583 119.735 177.039 119.735C176.506 119.735 176.01 119.868 175.551 120.135C175.103 120.391 174.741 120.769 174.463 121.271C174.197 121.761 174.063 122.332 174.063 122.983C174.063 123.644 174.197 124.225 174.463 124.727C174.741 125.217 175.103 125.596 175.551 125.863C176.01 126.119 176.506 126.247 177.039 126.247C177.583 126.247 178.079 126.119 178.527 125.863C178.986 125.596 179.349 125.217 179.615 124.727C179.882 124.225 180.015 123.639 180.015 122.967Z" fill="black"/>
<path d="M152.696 76L131.029 57L109.362 76" stroke="black" stroke-width="3" stroke-linecap="round" stroke-linejoin="round"/>
<path d="M131.029 57V99.75" stroke="black" stroke-width="3" stroke-linecap="round" stroke-linejoin="round"/>
<path d="M176.475 87.3525C181.758 84.8268 185.932 80.8302 188.337 75.9935C190.742 71.1568 191.242 65.7554 189.758 60.6418C188.274 55.5282 184.89 50.9937 180.14 47.7539C175.391 44.5141 169.546 42.7535 163.529 42.75H156.704C155.065 37.1889 152.009 32.0261 147.766 27.6498C143.524 23.2734 138.205 19.7973 132.211 17.4829C126.216 15.1685 119.701 14.076 113.155 14.2875C106.609 14.499 100.203 16.009 94.4189 18.704C88.6345 21.3989 83.6221 25.2088 79.7584 29.8471C75.8948 34.4853 73.2804 39.8313 72.112 45.4832C70.9436 51.135 71.2514 56.9456 73.0124 62.478C74.7734 68.0105 77.9418 73.1209 82.2792 77.425" stroke="black" stroke-width="3" stroke-linecap="round" stroke-linejoin="round"/>
<path d="M152.696 76L131.029 57L109.362 76" stroke="black" stroke-width="3" stroke-linecap="round" stroke-linejoin="round"/>
</svg>
